<svg width="164" height="203" viewBox="0 0 164 203" fill="none" xmlns="http://www.w3.org/2000/svg">
<path d="M46 23C46 11.9543 37.0457 3 26 3C14.9543 3 6 11.9543 6 23V174C6 185.046 14.9543 194 26 194C37.0457 194 46 185.046 46 174V23Z" fill="white"/>
<g filter="url(#filter0_d)">
<path d="M46 23C46 11.9543 37.0457 3 26 3C14.9543 3 6 11.9543 6 23V174C6 185.046 14.9543 194 26 194C37.0457 194 46 185.046 46 174V23Z" fill="white"/>
</g>
<path d="M46 85C46 73.9543 37.0457 65 26 65C14.9543 65 6 73.9543 6 85V174C6 185.046 14.9543 194 26 194C37.0457 194 46 185.046 46 174V85Z" fill="url(#paint0_linear)"/>
<path d="M86.6169 84.203C86.6169 77.2994 81.0205 71.703 74.1169 71.703C67.2134 71.703 61.6169 77.2994 61.6169 84.203V111.203C61.6169 118.107 67.2134 123.703 74.1169 123.703C81.0205 123.703 86.6169 118.107 86.6169 111.203V84.203Z" fill="url(#paint1_linear)"/>
<path d="M124.816 52.906C124.816 46.0024 119.219 40.406 112.316 40.406C105.412 40.406 99.8159 46.0024 99.8159 52.906V149.906C99.8159 156.81 105.412 162.406 112.316 162.406C119.219 162.406 124.816 156.81 124.816 149.906V52.906Z" fill="url(#paint2_linear)"/>
<path d="M163.015 22.851C163.015 15.9475 157.418 10.351 150.515 10.351C143.611 10.351 138.015 15.9475 138.015 22.851V172.554C138.015 179.458 143.611 185.054 150.515 185.054C157.418 185.054 163.015 179.458 163.015 172.554V22.851Z" fill="url(#paint3_linear)"/>
<defs>
<filter id="filter0_d" x="0" y="0" width="52" height="203" filterUnits="userSpaceOnUse" color-interpolation-filters="sRGB">
<feFlood flood-opacity="0" result="BackgroundImageFix"/>
<feColorMatrix in="SourceAlpha" type="matrix" values="0 0 0 0 0 0 0 0 0 0 0 0 0 0 0 0 0 0 127 0" result="hardAlpha"/>
<feOffset dy="3"/>
<feGaussianBlur stdDeviation="3"/>
<feColorMatrix type="matrix" values="0 0 0 0 1 0 0 0 0 0.47451 0 0 0 0 0.0235294 0 0 0 0.322 0"/>
<feBlend mode="normal" in2="BackgroundImageFix" result="effect1_dropShadow"/>
<feBlend mode="normal" in="SourceGraphic" in2="effect1_dropShadow" result="shape"/>
</filter>
<linearGradient id="paint0_linear" x1="192.44" y1="-2.338" x2="-39.3609" y2="17.8793" gradientUnits="userSpaceOnUse">
<stop stop-color="#FF0000"/>
<stop offset="1" stop-color="#FFC300"/>
</linearGradient>
<linearGradient id="paint1_linear" x1="178.142" y1="44.559" x2="34.7859" y2="63.9451" gradientUnits="userSpaceOnUse">
<stop stop-color="#FF0000"/>
<stop offset="1" stop-color="#FFC300"/>
</linearGradient>
<linearGradient id="paint2_linear" x1="216.341" y1="-23.278" x2="70.8466" y2="-14.8918" gradientUnits="userSpaceOnUse">
<stop stop-color="#FF0000"/>
<stop offset="1" stop-color="#FFC300"/>
</linearGradient>
<linearGradient id="paint3_linear" x1="254.54" y1="-80.844" x2="108.798" y2="-74.9777" gradientUnits="userSpaceOnUse">
<stop stop-color="#FF0000"/>
<stop offset="1" stop-color="#FFC300"/>
</linearGradient>
</defs>
</svg>
