<?xml version="1.0" standalone="no"?>
<!DOCTYPE svg PUBLIC "-//W3C//DTD SVG 20010904//EN"
 "http://www.w3.org/TR/2001/REC-SVG-20010904/DTD/svg10.dtd">
<svg version="1.0" xmlns="http://www.w3.org/2000/svg"
 width="812.000000pt" height="812.000000pt" viewBox="0 0 812.000000 812.000000"
 preserveAspectRatio="xMidYMid meet">
<metadata>
Created by potrace 1.14, written by Peter Selinger 2001-2017
</metadata>
<g transform="translate(0.000000,812.000000) scale(0.100000,-0.100000)"
fill="#000000" stroke="none">
<path d="M1796 8003 c-1 -1 -31 -5 -66 -9 -36 -4 -73 -7 -82 -8 -10 -1 -21 -5
-24 -9 -4 -4 -17 -7 -29 -7 -12 0 -25 -3 -29 -7 -4 -5 -11 -8 -14 -9 -4 0 -25
-8 -47 -17 -22 -10 -44 -18 -50 -19 -5 0 -15 -8 -21 -16 -6 -8 -16 -12 -22 -8
-7 4 -12 3 -12 -2 0 -12 -50 -45 -67 -45 -7 0 -11 -2 -9 -5 9 -8 -33 -44 -43
-37 -7 3 -10 2 -9 -2 3 -8 -66 -94 -108 -137 -15 -16 -37 -57 -94 -181 -16
-33 -42 -138 -43 -172 -1 -18 -4 -33 -7 -33 -3 0 -4 -35 -3 -77 1 -50 -3 -80
-10 -85 -9 -6 -9 -8 0 -8 15 0 15 -90 0 -90 -8 0 -9 -3 -1 -8 13 -9 15 -174 1
-165 -6 4 -7 1 -1 -8 13 -20 12 -152 -1 -161 -6 -5 -6 -8 2 -8 8 0 12 -13 11
-35 -1 -20 -5 -32 -11 -28 -6 4 -7 1 -1 -8 13 -20 14 -240 1 -232 -6 4 -7 1
-1 -8 13 -21 13 -632 0 -641 -8 -5 -7 -8 1 -8 8 0 12 -13 11 -35 -1 -20 -5
-32 -11 -28 -6 4 -7 1 -1 -8 13 -20 14 -240 1 -232 -6 4 -7 1 -1 -8 13 -21 13
-679 0 -679 -8 0 -8 -3 0 -8 14 -9 13 -424 -1 -434 -6 -5 -5 -8 3 -8 6 0 12
-7 12 -15 0 -8 -6 -15 -12 -15 -9 0 -9 -3 -2 -8 13 -9 13 -260 0 -281 -6 -9
-5 -12 1 -8 13 8 11 -296 -2 -305 -6 -5 -5 -8 3 -8 6 0 12 -7 12 -15 0 -8 -6
-15 -12 -15 -9 0 -9 -3 -2 -8 13 -9 13 -260 0 -281 -6 -8 -5 -12 0 -8 6 3 9
-203 9 -519 0 -426 -3 -526 -13 -533 -11 -7 -11 -9 1 -14 19 -7 18 -134 -1
-146 -11 -7 -11 -9 0 -14 16 -6 19 -82 4 -106 -6 -10 -5 -12 2 -7 8 5 12 -1
12 -14 0 -13 -4 -19 -12 -14 -7 5 -8 3 -2 -7 5 -8 9 -153 9 -322 0 -253 -2
-310 -13 -316 -12 -7 -12 -9 1 -14 19 -7 17 -55 -3 -67 -10 -6 -9 -9 1 -12 10
-3 14 -24 15 -70 1 -36 4 -69 7 -75 3 -5 7 -30 9 -55 2 -25 7 -44 12 -40 5 3
7 -1 4 -10 -4 -8 0 -28 7 -44 8 -16 23 -49 34 -73 11 -24 18 -47 16 -51 -3 -4
2 -10 10 -14 8 -3 15 -12 15 -21 0 -8 4 -15 8 -15 4 0 15 -12 24 -28 9 -15 26
-38 38 -52 12 -14 30 -34 39 -45 9 -11 32 -33 51 -49 19 -16 34 -33 32 -39 -1
-5 3 -7 10 -5 7 3 17 1 23 -4 5 -5 25 -18 43 -29 26 -15 31 -23 23 -33 -8 -9
-7 -13 4 -13 8 0 12 5 8 10 -3 5 3 7 13 5 12 -2 18 -11 16 -23 -2 -15 -1 -17
6 -6 13 18 52 5 52 -17 0 -13 2 -14 9 -3 6 9 14 10 27 3 11 -5 36 -12 56 -16
20 -4 39 -12 41 -19 4 -8 6 -7 6 2 1 11 5 10 17 -5 8 -10 13 -14 10 -7 -7 12
48 13 60 0 4 -4 18 -4 32 0 17 4 23 2 18 -5 -3 -6 -1 -14 5 -18 7 -4 9 -3 5 4
-10 17 11 24 35 11 17 -9 20 -8 14 2 -6 9 -3 11 8 6 9 -3 19 -2 23 4 4 6 12 5
22 -3 9 -7 13 -8 9 -2 -4 7 5 11 24 12 25 1 28 -2 18 -14 -6 -8 -8 -14 -4 -14
4 0 1 -8 -6 -17 -13 -16 -12 -17 3 -4 10 7 16 17 13 21 -12 19 36 42 92 44 17
0 31 6 30 11 -1 6 4 9 11 7 6 -1 12 3 12 10 0 6 3 9 6 5 5 -5 45 14 136 65 13
7 26 17 29 22 4 5 12 5 18 2 7 -5 10 -2 9 6 -2 7 5 12 14 12 10 -1 15 2 12 7
-3 5 0 9 6 9 6 0 8 5 4 12 -5 8 -2 9 10 5 9 -4 15 -3 12 2 -3 5 10 23 29 40
20 17 32 31 28 31 -4 1 1 8 12 18 22 18 93 127 118 180 27 56 55 159 63 231 2
24 7 47 9 52 3 4 1 11 -5 14 -7 4 -7 11 -2 18 5 7 8 47 6 90 -2 71 0 76 15 65
14 -12 15 -11 1 6 -15 20 -25 170 -10 161 5 -3 12 -1 15 5 4 6 1 9 -6 8 -9 -2
-13 19 -15 74 -1 52 2 76 9 71 6 -4 7 -1 1 8 -12 20 -14 180 -1 172 6 -4 7 -1
1 8 -11 17 -14 300 -3 293 4 -2 11 0 14 6 4 6 1 9 -6 8 -9 -2 -13 19 -15 74
-1 52 2 76 9 71 6 -4 7 -1 1 8 -12 20 -14 180 -1 172 6 -4 7 -1 1 8 -11 17
-14 300 -3 293 4 -2 11 0 14 6 4 6 1 9 -6 8 -9 -2 -13 19 -15 74 -1 52 2 76 9
71 6 -4 7 -1 1 8 -13 21 -13 89 0 89 7 0 7 3 -1 8 -14 9 -13 52 2 52 7 0 7 3
0 8 -14 9 -15 523 -1 515 5 -4 6 -1 0 8 -12 20 -14 180 -2 173 6 -4 5 3 -1 14
-14 27 -14 55 0 46 8 -4 8 -1 1 13 -13 24 -11 115 3 125 6 5 5 8 -2 8 -15 0
-13 50 2 50 7 0 7 3 0 8 -14 9 -15 523 -1 515 5 -4 6 -1 0 8 -13 21 -14 180
-1 172 6 -4 7 -1 1 8 -5 8 -9 539 -10 1269 0 691 -4 1268 -8 1283 -4 19 -2 27
6 27 10 0 10 2 1 8 -7 4 -15 23 -18 42 -10 57 -38 142 -62 185 -12 22 -30 56
-40 75 -9 19 -25 41 -35 48 -10 7 -18 19 -18 27 0 7 -3 15 -7 17 -5 2 -30 28
-58 58 -27 30 -51 53 -53 51 -2 -1 -17 9 -35 23 -17 14 -37 26 -44 26 -7 0
-13 4 -13 9 0 14 -121 69 -201 90 -87 23 -233 44 -243 34z"/>
<path d="M6748 7704 c-2 -1 -19 -5 -40 -8 -166 -26 -317 -156 -384 -331 -19
-49 -19 -121 -22 -3120 -2 -2804 -1 -3076 14 -3140 9 -38 26 -88 37 -110 25
-47 91 -131 126 -160 59 -49 168 -100 239 -111 71 -11 229 5 257 26 6 4 21 11
35 15 104 32 238 190 274 325 21 80 19 6228 -3 6253 -7 10 -11 17 -7 17 3 0
-10 32 -29 70 -63 125 -188 226 -325 261 -40 10 -165 20 -172 13z"/>
<path d="M5214 6499 c-214 -28 -379 -177 -427 -385 -19 -81 -21 -4004 -2
-4093 55 -265 305 -432 582 -388 46 7 146 46 151 59 2 4 10 8 18 8 23 0 147
131 177 186 64 121 60 -23 60 2169 -1 1095 -3 2006 -7 2027 -9 54 -35 128 -62
175 -21 37 -108 131 -145 158 -89 64 -233 99 -345 84z"/>
<path d="M3598 5229 c-162 -54 -278 -169 -330 -328 -20 -64 -21 -83 -22 -685
l-1 -619 25 -76 c45 -134 133 -236 255 -295 153 -76 329 -69 477 18 40 23 84
62 134 118 21 22 68 107 77 138 2 8 5 17 6 20 1 3 8 26 16 53 9 31 10 47 3 47
-7 0 -7 4 -1 13 6 7 9 247 8 607 -2 575 -3 597 -23 660 -51 156 -166 273 -322
326 -85 29 -219 30 -302 3z"/>
<path d="M2665 3800 c-3 -6 1 -7 9 -4 18 7 21 14 7 14 -6 0 -13 -4 -16 -10z"/>
<path d="M2705 2540 c-3 -6 1 -7 9 -4 18 7 21 14 7 14 -6 0 -13 -4 -16 -10z"/>
<path d="M2705 1900 c-3 -6 1 -7 9 -4 18 7 21 14 7 14 -6 0 -13 -4 -16 -10z"/>
<path d="M2674 1320 c0 -13 4 -16 10 -10 7 7 7 13 0 20 -6 6 -10 3 -10 -10z"/>
<path d="M1036 758 c3 -5 10 -6 15 -3 13 9 11 12 -6 12 -8 0 -12 -4 -9 -9z"/>
<path d="M2519 733 c-12 -16 -12 -17 2 -6 9 7 20 9 24 5 5 -4 5 -1 1 6 -9 16
-11 15 -27 -5z"/>
<path d="M2496 693 c-6 -14 -5 -15 5 -6 7 7 10 15 7 18 -3 3 -9 -2 -12 -12z"/>
<path d="M1150 666 c0 -2 7 -7 16 -10 8 -3 12 -2 9 4 -6 10 -25 14 -25 6z"/>
<path d="M2413 551 c0 -11 5 -18 9 -15 4 3 5 11 1 19 -7 21 -12 19 -10 -4z"/>
<path d="M2353 495 c0 -8 4 -12 9 -9 5 3 6 10 3 15 -9 13 -12 11 -12 -6z"/>
<path d="M1346 478 c3 -4 9 -8 15 -8 5 0 9 4 9 8 0 5 -7 9 -15 9 -8 0 -12 -4
-9 -9z"/>
<path d="M2306 478 c3 -4 9 -8 15 -8 5 0 9 4 9 8 0 5 -7 9 -15 9 -8 0 -12 -4
-9 -9z"/>
<path d="M1390 460 c0 -5 5 -10 11 -10 5 0 7 5 4 10 -3 6 -8 10 -11 10 -2 0
-4 -4 -4 -10z"/>
<path d="M2240 460 c-9 -6 -10 -10 -3 -10 6 0 15 5 18 10 8 12 4 12 -15 0z"/>
<path d="M1344 438 l-19 -23 23 19 c21 18 27 26 19 26 -2 0 -12 -10 -23 -22z"/>
<path d="M2316 438 c3 -5 10 -6 15 -3 13 9 11 12 -6 12 -8 0 -12 -4 -9 -9z"/>
<path d="M2109 383 c-13 -16 -12 -17 4 -4 16 13 21 21 13 21 -2 0 -10 -8 -17
-17z"/>
<path d="M1356 367 c3 -10 9 -15 12 -12 3 3 0 11 -7 18 -10 9 -11 8 -5 -6z"/>
<path d="M1597 370 c7 -8 20 -15 29 -16 9 -1 13 1 9 4 -4 4 -10 7 -13 7 -4 0
-14 4 -22 9 -12 7 -13 6 -3 -4z"/>
<path d="M2015 361 c-3 -5 -2 -12 3 -15 5 -3 9 1 9 9 0 17 -3 19 -12 6z"/>
<path d="M2146 362 c-3 -5 1 -9 9 -9 8 0 12 4 9 9 -3 4 -7 8 -9 8 -2 0 -6 -4
-9 -8z"/>
<path d="M1435 340 c3 -5 8 -10 11 -10 2 0 4 5 4 10 0 6 -5 10 -11 10 -5 0 -7
-4 -4 -10z"/>
<path d="M1495 340 c3 -5 8 -10 11 -10 2 0 4 5 4 10 0 6 -5 10 -11 10 -5 0 -7
-4 -4 -10z"/>
<path d="M1641 336 c-9 -11 -9 -16 1 -22 7 -4 10 -4 6 1 -4 4 -3 14 3 22 6 7
9 13 6 13 -2 0 -10 -6 -16 -14z"/>
<path d="M1673 325 c0 -8 4 -15 9 -15 4 0 8 4 8 9 0 6 -4 12 -8 15 -5 3 -9 -1
-9 -9z"/>
<path d="M1770 336 c0 -2 8 -10 18 -17 15 -13 16 -12 3 4 -13 16 -21 21 -21
13z"/>
<path d="M1896 313 c-6 -14 -5 -15 5 -6 7 7 10 15 7 18 -3 3 -9 -2 -12 -12z"/>
<path d="M1755 311 c-3 -5 -2 -12 3 -15 5 -3 9 1 9 9 0 17 -3 19 -12 6z"/>
<path d="M2053 305 c0 -8 4 -12 9 -9 5 3 6 10 3 15 -9 13 -12 11 -12 -6z"/>
<path d="M1975 300 c3 -5 8 -10 11 -10 2 0 4 5 4 10 0 6 -5 10 -11 10 -5 0 -7
-4 -4 -10z"/>
<path d="M2086 298 c3 -5 10 -6 15 -3 13 9 11 12 -6 12 -8 0 -12 -4 -9 -9z"/>
<path d="M1899 288 c-5 -18 -6 -38 -1 -34 7 8 12 36 6 36 -2 0 -4 -1 -5 -2z"/>
<path d="M2000 280 c-9 -6 -10 -10 -3 -10 6 0 15 5 18 10 8 12 4 12 -15 0z"/>
<path d="M2230 276 c7 -7 13 -7 20 0 6 6 3 10 -10 10 -13 0 -16 -4 -10 -10z"/>
<path d="M1710 259 c0 -5 5 -7 10 -4 6 3 10 8 10 11 0 2 -4 4 -10 4 -5 0 -10
-5 -10 -11z"/>
<path d="M1790 265 c0 -7 30 -13 34 -7 3 4 -4 9 -15 9 -10 1 -19 0 -19 -2z"/>
</g>
</svg>
